<?xml version="1.0" encoding="UTF-8" standalone="no"?><svg xmlns="http://www.w3.org/2000/svg" xmlns:xlink="http://www.w3.org/1999/xlink" contentStyleType="text/css" height="369px" preserveAspectRatio="none" style="width:568px;height:369px;background:#FFFFFF;" version="1.1" viewBox="0 0 568 369" width="568px" zoomAndPan="magnify"><defs/><g><rect height="26.2969" style="stroke:#00000000;stroke-width:1.0;fill:none;" width="227" x="163.75" y="5"/><text fill="#000000" font-family="sans-serif" font-size="14" font-weight="bold" lengthAdjust="spacing" textLength="217" x="168.75" y="22.9951">Gateway Pass State Model</text><!--MD5=[aacb247d1c3659b314987735f31db229]
cluster NotFrozenOrRevoked--><g id="cluster_NotFrozenOrRevoked"><path d="M62.5,44.2969 L314.5,44.2969 A12.5,12.5 0 0 1 327,56.7969 L327,70.5938 L50,70.5938 L50,56.7969 A12.5,12.5 0 0 1 62.5,44.2969 " fill="#F1F1F1" style="stroke:#F1F1F1;stroke-width:1.0;"/><rect height="244" rx="12.5" ry="12.5" style="stroke:#181818;stroke-width:0.5;fill:none;" width="277" x="50" y="44.2969"/><line style="stroke:#181818;stroke-width:0.5;fill:none;" x1="50" x2="327" y1="70.5938" y2="70.5938"/><text fill="#000000" font-family="sans-serif" font-size="14" lengthAdjust="spacing" textLength="155" x="111" y="61.292">NotFrozenOrRevoked</text></g><g id="NotFrozenOrRevoked.Active"><rect fill="#F1F1F1" height="50" rx="12.5" ry="12.5" style="stroke:#181818;stroke-width:0.5;" width="66" x="145" y="87.2969"/><line style="stroke:#181818;stroke-width:0.5;" x1="145" x2="211" y1="113.5938" y2="113.5938"/><text fill="#000000" font-family="sans-serif" font-size="14" lengthAdjust="spacing" textLength="46" x="155" y="105.292">Active</text></g><g id="NotFrozenOrRevoked.Expired"><rect fill="#F1F1F1" height="50" rx="12.5" ry="12.5" style="stroke:#181818;stroke-width:0.5;" width="75" x="132.5" y="214.2969"/><line style="stroke:#181818;stroke-width:0.5;" x1="132.5" x2="207.5" y1="240.5938" y2="240.5938"/><text fill="#000000" font-family="sans-serif" font-size="14" lengthAdjust="spacing" textLength="55" x="142.5" y="232.292">Expired</text></g><ellipse cx="16" cy="112.2969" fill="#222222" rx="10" ry="10" style="stroke:none;stroke-width:1.0;"/><g id="Frozen"><rect fill="#F1F1F1" height="50" rx="12.5" ry="12.5" style="stroke:#181818;stroke-width:0.5;" width="69" x="363.5" y="214.2969"/><line style="stroke:#181818;stroke-width:0.5;" x1="363.5" x2="432.5" y1="240.5938" y2="240.5938"/><text fill="#000000" font-family="sans-serif" font-size="14" lengthAdjust="spacing" textLength="49" x="373.5" y="232.292">Frozen</text></g><g id="Revoked"><rect fill="#F1F1F1" height="50" rx="12.5" ry="12.5" style="stroke:#181818;stroke-width:0.5;" width="83" x="478.5" y="214.2969"/><line style="stroke:#181818;stroke-width:0.5;" x1="478.5" x2="561.5" y1="240.5938" y2="240.5938"/><text fill="#000000" font-family="sans-serif" font-size="14" lengthAdjust="spacing" textLength="63" x="488.5" y="232.292">Revoked</text></g><ellipse cx="520" cy="353.2969" fill="none" rx="10" ry="10" style="stroke:#222222;stroke-width:1.0;"/><ellipse cx="520.5" cy="353.7969" fill="#222222" rx="6" ry="6" style="stroke:none;stroke-width:1.0;"/><!--MD5=[776f17c8e1fdc955aa8690ff62f39a89]
link Active to Expired--><g id="link_Active_Expired"><path d="M144.978,129.0779 C130.187,138.0449 114.246,150.8059 106,167.2969 C97.0373,185.2219 110.773,202.0359 127.787,214.7969 " fill="none" id="Active-to-Expired" style="stroke:#181818;stroke-width:1.0;"/><polygon fill="#181818" points="132.171,217.9529,127.2034,209.4486,128.113,215.0318,122.5297,215.9414,132.171,217.9529" style="stroke:#181818;stroke-width:1.0;"/><text fill="#000000" font-family="sans-serif" font-size="13" lengthAdjust="spacing" textLength="77" x="107" y="180.3638">By Network.</text></g><!--MD5=[3cb5ee7a800e3015828a31f11b36a230]
link Expired to Active--><g id="link_Expired_Active"><path d="M180.502,214.0319 C183.93,204.8919 187.293,194.2889 189,184.2969 C191.354,170.5119 189.537,155.1829 186.75,142.3069 " fill="none" id="Expired-to-Active" style="stroke:#181818;stroke-width:1.0;"/><polygon fill="#181818" points="185.596,137.3179,183.7278,146.9879,186.7231,142.1892,191.5218,145.1845,185.596,137.3179" style="stroke:#181818;stroke-width:1.0;"/><text fill="#000000" font-family="sans-serif" font-size="13" lengthAdjust="spacing" textLength="65" x="192" y="180.3638">(Re-)Issue</text></g><!--MD5=[edb54b3b19a9924369663c95443e5f29]
link *start to Active--><g id="link_*start_Active"><path d="M26.1338,112.2969 C48.3172,112.2969 102.1652,112.2969 139.387,112.2969 " fill="none" id="*start-to-Active" style="stroke:#181818;stroke-width:1.0;"/><polygon fill="#181818" points="144.752,112.2969,135.752,108.2969,139.752,112.2969,135.752,116.2969,144.752,112.2969" style="stroke:#181818;stroke-width:1.0;"/><text fill="#000000" font-family="sans-serif" font-size="13" lengthAdjust="spacing" textLength="33" x="69" y="105.3638">Issue</text></g><!--MD5=[a9172b1635ea7f98efccaca92c309a0a]
link Frozen to Active--><g id="link_Frozen_Active"><path d="M363.182,220.0309 C327.069,200.8729 269.019,169.4759 215.51,137.5659 " fill="none" id="Frozen-to-Active" style="stroke:#181818;stroke-width:1.0;"/><polygon fill="#181818" points="211.009,134.8739,216.6811,142.9254,215.3005,137.4396,220.7863,136.059,211.009,134.8739" style="stroke:#181818;stroke-width:1.0;"/><text fill="#000000" font-family="sans-serif" font-size="13" lengthAdjust="spacing" textLength="58" x="296" y="180.3638">Unfreeze</text></g><!--MD5=[5d44ea3ae240c242278a0c40e79b39da]
link NotFrozenOrRevoked to Frozen--><g id="link_NotFrozenOrRevoked_Frozen"><path d="M327.0421,116.0985 C327.1232,116.1291 327.2048,116.16 327.2869,116.1912 C327.4511,116.2535 327.6174,116.3169 327.7855,116.3813 C328.4583,116.6387 329.1623,116.9125 329.8951,117.2026 C335.7575,119.5236 343.4576,122.8918 351.6519,127.3416 C368.0405,136.2414 386.406,149.4679 396,167.2969 C402.758,179.8549 403.818,195.5569 402.949,208.9989 " fill="none" id="NotFrozenOrRevoked-to-Frozen" style="stroke:#181818;stroke-width:1.0;"/><polygon fill="#181818" points="402.51,214.2189,407.252,205.5868,402.9301,209.2366,399.2803,204.9146,402.51,214.2189" style="stroke:#181818;stroke-width:1.0;"/><text fill="#000000" font-family="sans-serif" font-size="13" lengthAdjust="spacing" textLength="43" x="403" y="180.3638">Freeze</text></g><!--MD5=[f71b4c63833bec3161f978504fa05ab8]
link NotFrozenOrRevoked to Revoked--><g id="link_NotFrozenOrRevoked_Revoked"><path d="M327.0572,115.1395 C327.1616,115.1647 327.2669,115.1901 327.3731,115.2158 C327.5855,115.2671 327.8015,115.3195 328.0211,115.373 C329.7778,115.8005 331.7621,116.2947 333.9483,116.8564 C342.693,119.1029 354.6663,122.4276 368.208,126.8716 C395.2915,135.7596 428.649,149.1249 455,167.2969 C471.977,179.0039 487.69,195.9219 499.413,210.3069 " fill="none" id="NotFrozenOrRevoked-to-Revoked" style="stroke:#181818;stroke-width:1.0;"/><polygon fill="#181818" points="502.611,214.2899,500.0956,204.7676,499.4807,210.391,493.8574,209.7761,502.611,214.2899" style="stroke:#181818;stroke-width:1.0;"/><text fill="#000000" font-family="sans-serif" font-size="13" lengthAdjust="spacing" textLength="48" x="477" y="180.3638">Revoke</text></g><!--MD5=[7b6d240f37457f759cf5835a10145692]
link Revoked to *end--><g id="link_Revoked_*end"><path d="M520,264.3237 C520,286.6917 520,319.2947 520,337.8859 " fill="none" id="Revoked-to-*end" style="stroke:#181818;stroke-width:1.0;"/><polygon fill="#181818" points="520,343.179,524,334.179,520,338.179,516,334.179,520,343.179" style="stroke:#181818;stroke-width:1.0;"/></g><!--MD5=[cf8626c6be286faabf35eb986575db68]
@startuml
title Gateway Pass State Model

state NotFrozenOrRevoked {
  Active - -> Expired: By Network.
  Expired - -> Active: (Re-)Issue
}

[*] -> Active: Issue

Frozen -> Active: Unfreeze

NotFrozenOrRevoked - -> Frozen: Freeze

NotFrozenOrRevoked - -> Revoked: Revoke

Revoked - -> [*]
@enduml

PlantUML version 1.2022.5(Sat Apr 30 10:55:52 UTC 2022)
(GPL source distribution)
Java Runtime: Java(TM) SE Runtime Environment
JVM: Java HotSpot(TM) 64-Bit Server VM
Default Encoding: UTF-8
Language: en
Country: US
--></g></svg>