<?xml version="1.0" encoding="UTF-8" standalone="no"?><svg xmlns="http://www.w3.org/2000/svg" xmlns:xlink="http://www.w3.org/1999/xlink" contentStyleType="text/css" height="879px" preserveAspectRatio="none" style="width:673px;height:879px;background:#FFFFFF;" version="1.1" viewBox="0 0 673 879" width="673px" zoomAndPan="magnify"><defs/><g><rect fill="#FFFFFF" height="58.2656" style="stroke:#181818;stroke-width:1.0;" width="10" x="232.5" y="112.4297"/><rect fill="#FFFFFF" height="116.5313" style="stroke:#181818;stroke-width:1.0;" width="10" x="232.5" y="479.7578"/><rect fill="#FFFFFF" height="129.5313" style="stroke:#181818;stroke-width:1.0;" width="10" x="329.5" y="224.8281"/><rect fill="#FFFFFF" height="113.3984" style="stroke:#181818;stroke-width:1.0;" width="10" x="453.5" y="667.5547"/><line style="stroke:#181818;stroke-width:0.5;stroke-dasharray:5.0,5.0;" x1="23" x2="23" y1="81.2969" y2="798.9531"/><line style="stroke:#181818;stroke-width:0.5;stroke-dasharray:5.0,5.0;" x1="237" x2="237" y1="81.2969" y2="798.9531"/><line style="stroke:#181818;stroke-width:0.5;stroke-dasharray:5.0,5.0;" x1="334" x2="334" y1="81.2969" y2="798.9531"/><line style="stroke:#181818;stroke-width:0.5;stroke-dasharray:5.0,5.0;" x1="458.5" x2="458.5" y1="81.2969" y2="798.9531"/><text fill="#000000" font-family="sans-serif" font-size="14" lengthAdjust="spacing" textLength="31" x="5" y="77.9951">User</text><ellipse cx="23.5" cy="13.5" fill="#E2E2F0" rx="8" ry="8" style="stroke:#181818;stroke-width:0.5;"/><path d="M23.5,21.5 L23.5,48.5 M10.5,29.5 L36.5,29.5 M23.5,48.5 L10.5,63.5 M23.5,48.5 L36.5,63.5 " fill="none" style="stroke:#181818;stroke-width:0.5;"/><text fill="#000000" font-family="sans-serif" font-size="14" lengthAdjust="spacing" textLength="31" x="5" y="810.9482">User</text><ellipse cx="23.5" cy="822.75" fill="#E2E2F0" rx="8" ry="8" style="stroke:#181818;stroke-width:0.5;"/><path d="M23.5,830.75 L23.5,857.75 M10.5,838.75 L36.5,838.75 M23.5,857.75 L10.5,872.75 M23.5,857.75 L36.5,872.75 " fill="none" style="stroke:#181818;stroke-width:0.5;"/><rect fill="#E2E2F0" height="30.2969" rx="2.5" ry="2.5" style="stroke:#181818;stroke-width:0.5;" width="73" x="201" y="50"/><text fill="#000000" font-family="sans-serif" font-size="14" lengthAdjust="spacing" textLength="59" x="208" y="69.9951">dApp_UI</text><rect fill="#E2E2F0" height="30.2969" rx="2.5" ry="2.5" style="stroke:#181818;stroke-width:0.5;" width="73" x="201" y="797.9531"/><text fill="#000000" font-family="sans-serif" font-size="14" lengthAdjust="spacing" textLength="59" x="208" y="817.9482">dApp_UI</text><rect fill="#E2E2F0" height="30.2969" rx="2.5" ry="2.5" style="stroke:#181818;stroke-width:0.5;" width="101" x="284" y="50"/><text fill="#000000" font-family="sans-serif" font-size="14" lengthAdjust="spacing" textLength="87" x="291" y="69.9951">Gatekeeper</text><rect fill="#E2E2F0" height="30.2969" rx="2.5" ry="2.5" style="stroke:#181818;stroke-width:0.5;" width="101" x="284" y="797.9531"/><text fill="#000000" font-family="sans-serif" font-size="14" lengthAdjust="spacing" textLength="87" x="291" y="817.9482">Gatekeeper</text><text fill="#000000" font-family="sans-serif" font-size="14" lengthAdjust="spacing" textLength="78" x="416.5" y="77.9951">Blockchain</text><path d="M440.5,29 C440.5,19 458.5,19 458.5,19 C458.5,19 476.5,19 476.5,29 L476.5,55 C476.5,65 458.5,65 458.5,65 C458.5,65 440.5,65 440.5,55 L440.5,29 " fill="#E2E2F0" style="stroke:#181818;stroke-width:1.5;"/><path d="M440.5,29 C440.5,39 458.5,39 458.5,39 C458.5,39 476.5,39 476.5,29 " fill="none" style="stroke:#181818;stroke-width:1.5;"/><text fill="#000000" font-family="sans-serif" font-size="14" lengthAdjust="spacing" textLength="78" x="416.5" y="810.9482">Blockchain</text><path d="M440.5,824.25 C440.5,814.25 458.5,814.25 458.5,814.25 C458.5,814.25 476.5,814.25 476.5,824.25 L476.5,850.25 C476.5,860.25 458.5,860.25 458.5,860.25 C458.5,860.25 440.5,860.25 440.5,850.25 L440.5,824.25 " fill="#E2E2F0" style="stroke:#181818;stroke-width:1.5;"/><path d="M440.5,824.25 C440.5,834.25 458.5,834.25 458.5,834.25 C458.5,834.25 476.5,834.25 476.5,824.25 " fill="none" style="stroke:#181818;stroke-width:1.5;"/><rect fill="#FFFFFF" height="58.2656" style="stroke:#181818;stroke-width:1.0;" width="10" x="232.5" y="112.4297"/><rect fill="#FFFFFF" height="116.5313" style="stroke:#181818;stroke-width:1.0;" width="10" x="232.5" y="479.7578"/><rect fill="#FFFFFF" height="129.5313" style="stroke:#181818;stroke-width:1.0;" width="10" x="329.5" y="224.8281"/><rect fill="#FFFFFF" height="113.3984" style="stroke:#181818;stroke-width:1.0;" width="10" x="453.5" y="667.5547"/><polygon fill="#181818" points="220.5,108.4297,230.5,112.4297,220.5,116.4297,224.5,112.4297" style="stroke:#181818;stroke-width:1.0;"/><line style="stroke:#181818;stroke-width:1.0;" x1="23.5" x2="226.5" y1="112.4297" y2="112.4297"/><text fill="#000000" font-family="sans-serif" font-size="13" lengthAdjust="spacing" textLength="116" x="30.5" y="107.3638">Visit web3 service</text><polygon fill="#181818" points="253.5,137.5625,243.5,141.5625,253.5,145.5625,249.5,141.5625" style="stroke:#181818;stroke-width:1.0;"/><polygon fill="#181818" points="446.5,137.5625,456.5,141.5625,446.5,145.5625,450.5,141.5625" style="stroke:#181818;stroke-width:1.0;"/><line style="stroke:#181818;stroke-width:1.0;" x1="247.5" x2="452.5" y1="141.5625" y2="141.5625"/><text fill="#000000" font-family="sans-serif" font-size="13" lengthAdjust="spacing" textLength="73" x="259.5" y="136.4966">Check pass</text><polygon fill="#181818" points="34.5,166.6953,24.5,170.6953,34.5,174.6953,30.5,170.6953" style="stroke:#181818;stroke-width:1.0;"/><line style="stroke:#181818;stroke-width:1.0;stroke-dasharray:2.0,2.0;" x1="28.5" x2="236.5" y1="170.6953" y2="170.6953"/><text fill="#000000" font-family="sans-serif" font-size="13" lengthAdjust="spacing" textLength="185" x="40.5" y="165.6294">: Missing pass, redirect to GK</text><polygon fill="#181818" points="317.5,220.8281,327.5,224.8281,317.5,228.8281,321.5,224.8281" style="stroke:#181818;stroke-width:1.0;"/><line style="stroke:#181818;stroke-width:1.0;" x1="23.5" x2="323.5" y1="224.8281" y2="224.8281"/><text fill="#000000" font-family="sans-serif" font-size="13" lengthAdjust="spacing" textLength="87" x="30.5" y="219.7622">Request Pass</text><polygon fill="#181818" points="34.5,249.9609,24.5,253.9609,34.5,257.9609,30.5,253.9609" style="stroke:#181818;stroke-width:1.0;"/><line style="stroke:#181818;stroke-width:1.0;" x1="28.5" x2="328.5" y1="253.9609" y2="253.9609"/><text fill="#000000" font-family="sans-serif" font-size="13" lengthAdjust="spacing" textLength="156" x="40.5" y="248.895">Send pass requirements</text><polygon fill="#181818" points="317.5,279.0938,327.5,283.0938,317.5,287.0938,321.5,283.0938" style="stroke:#181818;stroke-width:1.0;"/><line style="stroke:#181818;stroke-width:1.0;" x1="23.5" x2="323.5" y1="283.0938" y2="283.0938"/><text fill="#000000" font-family="sans-serif" font-size="13" lengthAdjust="spacing" textLength="107" x="30.5" y="278.0278">Submit evidence</text><line style="stroke:#181818;stroke-width:1.0;" x1="339.5" x2="381.5" y1="312.2266" y2="312.2266"/><line style="stroke:#181818;stroke-width:1.0;" x1="381.5" x2="381.5" y1="312.2266" y2="325.2266"/><line style="stroke:#181818;stroke-width:1.0;" x1="340.5" x2="381.5" y1="325.2266" y2="325.2266"/><polygon fill="#181818" points="350.5,321.2266,340.5,325.2266,350.5,329.2266,346.5,325.2266" style="stroke:#181818;stroke-width:1.0;"/><text fill="#000000" font-family="sans-serif" font-size="13" lengthAdjust="spacing" textLength="100" x="346.5" y="307.1606">Verify evidence</text><polygon fill="#181818" points="34.5,350.3594,24.5,354.3594,34.5,358.3594,30.5,354.3594" style="stroke:#181818;stroke-width:1.0;"/><line style="stroke:#181818;stroke-width:1.0;stroke-dasharray:2.0,2.0;" x1="28.5" x2="333.5" y1="354.3594" y2="354.3594"/><text fill="#000000" font-family="sans-serif" font-size="13" lengthAdjust="spacing" textLength="152" x="40.5" y="349.2935">: Issue pass transaction</text><line style="stroke:#181818;stroke-width:1.0;" x1="23.5" x2="65.5" y1="383.4922" y2="383.4922"/><line style="stroke:#181818;stroke-width:1.0;" x1="65.5" x2="65.5" y1="383.4922" y2="396.4922"/><line style="stroke:#181818;stroke-width:1.0;" x1="24.5" x2="65.5" y1="396.4922" y2="396.4922"/><polygon fill="#181818" points="34.5,392.4922,24.5,396.4922,34.5,400.4922,30.5,396.4922" style="stroke:#181818;stroke-width:1.0;"/><text fill="#000000" font-family="sans-serif" font-size="13" lengthAdjust="spacing" textLength="136" x="30.5" y="378.4263">sign pass transaction</text><polygon fill="#181818" points="34.5,421.625,24.5,425.625,34.5,429.625,30.5,425.625" style="stroke:#181818;stroke-width:1.0;"/><polygon fill="#181818" points="446.5,421.625,456.5,425.625,446.5,429.625,450.5,425.625" style="stroke:#181818;stroke-width:1.0;"/><line style="stroke:#181818;stroke-width:1.0;" x1="28.5" x2="452.5" y1="425.625" y2="425.625"/><text fill="#000000" font-family="sans-serif" font-size="13" lengthAdjust="spacing" textLength="154" x="40.5" y="420.5591">submit pass transaction</text><polygon fill="#181818" points="220.5,475.7578,230.5,479.7578,220.5,483.7578,224.5,479.7578" style="stroke:#181818;stroke-width:1.0;"/><line style="stroke:#181818;stroke-width:1.0;" x1="23.5" x2="226.5" y1="479.7578" y2="479.7578"/><text fill="#000000" font-family="sans-serif" font-size="13" lengthAdjust="spacing" textLength="116" x="30.5" y="474.6919">Visit web3 service</text><polygon fill="#181818" points="253.5,504.8906,243.5,508.8906,253.5,512.8906,249.5,508.8906" style="stroke:#181818;stroke-width:1.0;"/><polygon fill="#181818" points="446.5,504.8906,456.5,508.8906,446.5,512.8906,450.5,508.8906" style="stroke:#181818;stroke-width:1.0;"/><line style="stroke:#181818;stroke-width:1.0;" x1="247.5" x2="452.5" y1="508.8906" y2="508.8906"/><text fill="#000000" font-family="sans-serif" font-size="13" lengthAdjust="spacing" textLength="73" x="259.5" y="503.8247">Check pass</text><polygon fill="#181818" points="34.5,534.0234,24.5,538.0234,34.5,542.0234,30.5,538.0234" style="stroke:#181818;stroke-width:1.0;"/><line style="stroke:#181818;stroke-width:1.0;" x1="28.5" x2="231.5" y1="538.0234" y2="538.0234"/><text fill="#000000" font-family="sans-serif" font-size="13" lengthAdjust="spacing" textLength="46" x="40.5" y="532.9575">service</text><polygon fill="#181818" points="220.5,563.1563,230.5,567.1563,220.5,571.1563,224.5,567.1563" style="stroke:#181818;stroke-width:1.0;"/><line style="stroke:#181818;stroke-width:1.0;" x1="23.5" x2="226.5" y1="567.1563" y2="567.1563"/><text fill="#000000" font-family="sans-serif" font-size="13" lengthAdjust="spacing" textLength="125" x="30.5" y="562.0903">request transaction</text><polygon fill="#181818" points="34.5,592.2891,24.5,596.2891,34.5,600.2891,30.5,596.2891" style="stroke:#181818;stroke-width:1.0;"/><line style="stroke:#181818;stroke-width:1.0;stroke-dasharray:2.0,2.0;" x1="28.5" x2="236.5" y1="596.2891" y2="596.2891"/><text fill="#000000" font-family="sans-serif" font-size="13" lengthAdjust="spacing" textLength="81" x="40.5" y="591.2231">: transaction</text><line style="stroke:#181818;stroke-width:1.0;" x1="23.5" x2="65.5" y1="625.4219" y2="625.4219"/><line style="stroke:#181818;stroke-width:1.0;" x1="65.5" x2="65.5" y1="625.4219" y2="638.4219"/><line style="stroke:#181818;stroke-width:1.0;" x1="24.5" x2="65.5" y1="638.4219" y2="638.4219"/><polygon fill="#181818" points="34.5,634.4219,24.5,638.4219,34.5,642.4219,30.5,638.4219" style="stroke:#181818;stroke-width:1.0;"/><text fill="#000000" font-family="sans-serif" font-size="13" lengthAdjust="spacing" textLength="102" x="30.5" y="620.356">sign transaction</text><polygon fill="#181818" points="441.5,663.5547,451.5,667.5547,441.5,671.5547,445.5,667.5547" style="stroke:#181818;stroke-width:1.0;"/><line style="stroke:#181818;stroke-width:1.0;" x1="23.5" x2="447.5" y1="667.5547" y2="667.5547"/><text fill="#000000" font-family="sans-serif" font-size="13" lengthAdjust="spacing" textLength="120" x="30.5" y="662.4888">submit transaction</text><line style="stroke:#181818;stroke-width:1.0;" x1="463.5" x2="505.5" y1="696.6875" y2="696.6875"/><line style="stroke:#181818;stroke-width:1.0;" x1="505.5" x2="505.5" y1="696.6875" y2="709.6875"/><line style="stroke:#181818;stroke-width:1.0;" x1="464.5" x2="505.5" y1="709.6875" y2="709.6875"/><polygon fill="#181818" points="474.5,705.6875,464.5,709.6875,474.5,713.6875,470.5,709.6875" style="stroke:#181818;stroke-width:1.0;"/><text fill="#000000" font-family="sans-serif" font-size="13" lengthAdjust="spacing" textLength="71" x="470.5" y="691.6216">check pass</text><line style="stroke:#181818;stroke-width:1.0;" x1="463.5" x2="505.5" y1="738.8203" y2="738.8203"/><line style="stroke:#181818;stroke-width:1.0;" x1="505.5" x2="505.5" y1="738.8203" y2="751.8203"/><line style="stroke:#181818;stroke-width:1.0;" x1="464.5" x2="505.5" y1="751.8203" y2="751.8203"/><polygon fill="#181818" points="474.5,747.8203,464.5,751.8203,474.5,755.8203,470.5,751.8203" style="stroke:#181818;stroke-width:1.0;"/><text fill="#000000" font-family="sans-serif" font-size="13" lengthAdjust="spacing" textLength="196" x="470.5" y="733.7544">execute remaining transaction</text><polygon fill="#181818" points="34.5,776.9531,24.5,780.9531,34.5,784.9531,30.5,780.9531" style="stroke:#181818;stroke-width:1.0;"/><line style="stroke:#181818;stroke-width:1.0;stroke-dasharray:2.0,2.0;" x1="28.5" x2="457.5" y1="780.9531" y2="780.9531"/><text fill="#000000" font-family="sans-serif" font-size="13" lengthAdjust="spacing" textLength="36" x="40.5" y="775.8872">result</text><!--MD5=[0cc452aac5cd9b855476d2064af82aa5]
@startuml
actor User as user
participant dApp_UI as dapp
participant Gatekeeper as gk
database Blockchain as block

user -> dapp : Visit web3 service 
activate dapp
dapp <-> block : Check pass
return : Missing pass, redirect to GK
|||
user -> gk: Request Pass
activate gk
gk -> user: Send pass requirements
user -> gk: Submit evidence
gk -> gk: Verify evidence
return: Issue pass transaction
user -> user: sign pass transaction
user <-> block: submit pass transaction
|||
user -> dapp : Visit web3 service 
activate dapp
dapp <-> block : Check pass
dapp -> user: service
user -> dapp: request transaction
return: transaction
user -> user: sign transaction
user -> block: submit transaction
activate block
block -> block: check pass
block -> block: execute remaining transaction
return result
@enduml

PlantUML version 1.2022.4beta2(Unknown compile time)
(GPL source distribution)
Java Runtime: Java(TM) SE Runtime Environment
JVM: Java HotSpot(TM) 64-Bit Server VM
Default Encoding: UTF-8
Language: en
Country: US
--></g></svg>